<svg width="12" height="12" viewBox="0 0 12 12" fill="none" xmlns="http://www.w3.org/2000/svg">
<path d="M6.38453 0.461548C4.87992 0.461548 4.69207 0.468471 4.1013 0.494779C3.51145 0.522471 3.10992 0.61524 2.75684 0.752317C2.39268 0.893548 2.08345 1.08324 1.77561 1.39109C1.46776 1.69893 1.27761 2.0077 1.13684 2.37232C0.999762 2.72539 0.906531 3.12693 0.8793 3.71678C0.851608 4.30755 0.846069 4.49539 0.846069 6.00001C0.846069 7.50462 0.852992 7.69247 0.8793 8.28324C0.906992 8.87263 0.999762 9.27462 1.13684 9.6277C1.27807 9.99139 1.46776 10.3011 1.77561 10.6089C2.08345 10.9163 2.39222 11.1069 2.75684 11.2477C3.11038 11.3843 3.51192 11.478 4.1013 11.5052C4.69207 11.5329 4.87992 11.5385 6.38453 11.5385C7.88915 11.5385 8.07699 11.5315 8.66776 11.5052C9.25715 11.4775 9.65915 11.3843 10.0122 11.2477C10.3759 11.1065 10.6856 10.9163 10.9935 10.6089C11.3008 10.3011 11.4915 9.99278 11.6322 9.6277C11.7688 9.27462 11.8625 8.87263 11.8898 8.28324C11.9175 7.69247 11.923 7.50462 11.923 6.00001C11.923 4.49539 11.9161 4.30755 11.8898 3.71678C11.8621 3.12739 11.7688 2.72493 11.6322 2.37232C11.491 2.00816 11.3008 1.69893 10.9935 1.39109C10.6856 1.08324 10.3773 0.893086 10.0122 0.752317C9.65915 0.61524 9.25715 0.522009 8.66776 0.494779C8.07699 0.467086 7.88915 0.461548 6.38453 0.461548ZM6.38453 1.45847C7.86284 1.45847 8.03915 1.46586 8.62299 1.49124C9.16299 1.51662 9.45607 1.60616 9.65084 1.68278C9.91022 1.78293 10.0939 1.90293 10.2887 2.09632C10.4821 2.29016 10.6021 2.47432 10.7022 2.7337C10.7779 2.92847 10.8684 3.22155 10.8928 3.76155C10.9191 4.34586 10.9251 4.52124 10.9251 6.00001C10.9251 7.47878 10.9182 7.65462 10.891 8.23847C10.8628 8.77847 10.7728 9.07155 10.6967 9.26632C10.5933 9.5257 10.4756 9.70939 10.2818 9.90416C10.0884 10.0975 9.90145 10.2175 9.64484 10.3177C9.45099 10.3934 9.1533 10.4839 8.6133 10.5083C8.0253 10.5346 7.85222 10.5406 6.37069 10.5406C4.88869 10.5406 4.71561 10.5337 4.12807 10.5065C3.58761 10.4783 3.28992 10.3883 3.09607 10.3122C2.83345 10.2088 2.65299 10.0911 2.45961 9.89724C2.2653 9.70386 2.14115 9.51693 2.04422 9.26032C1.96807 9.06647 1.87853 8.76878 1.85038 8.22878C1.82961 7.64724 1.82222 7.4677 1.82222 5.99309C1.82222 4.51801 1.82961 4.33801 1.85038 3.74955C1.87853 3.20955 1.96807 2.91232 2.04422 2.71847C2.14115 2.45539 2.2653 2.27539 2.45961 2.08109C2.65299 1.8877 2.83345 1.76309 3.09607 1.66662C3.28992 1.59001 3.58115 1.50001 4.12115 1.47232C4.70961 1.45155 4.88269 1.44462 6.36376 1.44462L6.38453 1.45847ZM6.38453 3.15601C4.81299 3.15601 3.54053 4.42986 3.54053 6.00001C3.54053 7.57155 4.81438 8.84401 6.38453 8.84401C7.95607 8.84401 9.22853 7.57016 9.22853 6.00001C9.22853 4.42847 7.95469 3.15601 6.38453 3.15601ZM6.38453 7.84616C5.36453 7.84616 4.53838 7.02001 4.53838 6.00001C4.53838 4.98001 5.36453 4.15386 6.38453 4.15386C7.40453 4.15386 8.23069 4.98001 8.23069 6.00001C8.23069 7.02001 7.40453 7.84616 6.38453 7.84616ZM10.0058 3.04386C10.0058 3.41078 9.70761 3.70847 9.34115 3.70847C8.97423 3.70847 8.67653 3.41032 8.67653 3.04386C8.67653 2.67739 8.97469 2.3797 9.34115 2.3797C9.70715 2.37924 10.0058 2.67739 10.0058 3.04386Z" fill="#25201D"/>
</svg>
