<svg width="13" height="11" viewBox="0 0 13 11" fill="none" xmlns="http://www.w3.org/2000/svg">
<path d="M12.2072 1.5755C11.7647 1.77491 11.2922 1.91076 10.7947 1.97279C11.3017 1.65957 11.6917 1.1659 11.8762 0.576882C11.4007 0.861395 10.8737 1.0685 10.3127 1.18384C9.86475 0.692225 9.22628 0.384644 8.51731 0.384644C7.15886 0.384644 6.05741 1.51398 6.05741 2.90528C6.05741 3.1052 6.07991 3.29744 6.12091 3.48148C4.07599 3.38254 2.26357 2.37572 1.05062 0.853706C0.837127 1.22383 0.717632 1.65393 0.717632 2.12248C0.717632 2.99909 1.15261 3.76958 1.81159 4.22224C1.4081 4.20891 1.02862 4.09511 0.697632 3.90646V3.93773C0.697632 5.16036 1.5441 6.18 2.67055 6.41222C2.46406 6.46912 2.24607 6.49988 2.02258 6.49988C1.86558 6.49988 1.71509 6.4845 1.5646 6.4558C1.88008 7.45697 2.78705 8.18697 3.8665 8.20747C3.02654 8.88364 1.96208 9.28657 0.815627 9.28657C0.620636 9.28657 0.426144 9.27478 0.230652 9.25223C1.32511 9.96684 2.61455 10.3846 4.00899 10.3846C8.53581 10.3846 11.0082 6.54192 11.0082 3.21491C11.0082 3.10777 11.0082 2.9996 11.0007 2.89195C11.4812 2.53874 11.9007 2.09224 12.2307 1.58575L12.2072 1.5755Z" fill="#25201D"/>
</svg>
