<svg width="13" height="12" viewBox="0 0 13 12" fill="none" xmlns="http://www.w3.org/2000/svg">
<path d="M3.24589 11.6154V4.14179H0.761824V11.6154H3.24589ZM2.00418 3.12079C2.87041 3.12079 3.4096 2.54691 3.4096 1.82974C3.39347 1.09641 2.87045 0.538452 2.02061 0.538452C1.17092 0.538452 0.615265 1.09642 0.615265 1.82974C0.615265 2.54694 1.15432 3.12079 1.98796 3.12079H2.0041H2.00418ZM4.62081 11.6154H7.10487V7.44176C7.10487 7.2184 7.12101 6.99526 7.18661 6.83559C7.36619 6.38931 7.77492 5.92709 8.46112 5.92709C9.36 5.92709 9.7196 6.61244 9.7196 7.61712V11.6153H12.2035V7.33004C12.2035 5.03445 10.978 3.96634 9.34364 3.96634C8.00359 3.96634 7.41522 4.71538 7.08835 5.22555H7.10493V4.14164H4.62086C4.65346 4.84292 4.62086 11.6152 4.62086 11.6152L4.62081 11.6154Z" fill="#25201D"/>
</svg>
